<svg viewBox="0 0 139 274" fill="none" xmlns="http://www.w3.org/2000/svg" style="overflow: visible;">
                  <g>
                    <path class="touch-path touch-path-01" d="M19.5 137C19.5 174.779 26.2074 208.958 37.0316 233.673C42.444 246.031 48.8759 256.001 55.9926 262.874C63.107 269.745 70.881 273.5 79 273.5C87.119 273.5 94.893 269.745 102.007 262.874C109.124 256.001 115.556 246.031 120.968 233.673C131.793 208.958 138.5 174.779 138.5 137C138.5 99.2208 131.793 65.0421 120.968 40.327C115.556 27.9686 109.124 17.9989 102.007 11.1258C94.893 4.25499 87.119 0.5 79 0.5C70.881 0.5 63.107 4.25499 55.9926 11.1258C48.8759 17.9989 42.444 27.9686 37.0316 40.327C26.2074 65.0421 19.5 99.2208 19.5 137Z" stroke="url(#static_gradient_touch)"></path>
                    <path class="touch-path touch-path-02" d="M0.5 137C0.5 174.779 7.20743 208.958 18.0316 233.673C23.444 246.031 29.8759 256.001 36.9926 262.874C44.107 269.745 51.881 273.5 60 273.5C68.119 273.5 75.893 269.745 83.0074 262.874C90.1241 256.001 96.556 246.031 101.968 233.673C112.793 208.958 119.5 174.779 119.5 137C119.5 99.2208 112.793 65.0421 101.968 40.327C96.556 27.9686 90.1241 17.9989 83.0074 11.1258C75.893 4.25499 68.119 0.5 60 0.5C51.881 0.5 44.107 4.25499 36.9926 11.1258C29.8759 17.9989 23.444 27.9686 18.0316 40.327C7.20743 65.0421 0.5 99.2208 0.5 137Z" stroke="url(#static_gradient_touch)"></path>
                  </g>
                </svg>