<svg id="visual" viewBox="0 0 960 540" width="960" height="540" xmlns="http://www.w3.org/2000/svg" xmlns:xlink="http://www.w3.org/1999/xlink" version="1.1"><g><g transform="translate(724 300)"><path d="M21.6 -21.4C28.1 -9.1 33.6 -0.1 32.5 8.5C31.4 17 23.7 25.1 12.2 34C0.6 42.9 -14.7 52.6 -25.9 49C-37.2 45.5 -44.3 28.6 -43.9 14.6C-43.4 0.6 -35.3 -10.5 -26.7 -23.3C-18.1 -36.1 -9.1 -50.5 -0.8 -49.9C7.6 -49.3 15.1 -33.7 21.6 -21.4Z" fill="none" stroke="#f92c85" stroke-width="2"></path></g><g transform="translate(240 263)"><path d="M29.5 -21.5C40 -10.3 51.6 2.1 49.1 10.5C46.6 18.9 30 23.4 17.2 25.7C4.4 28 -4.6 28.1 -16.4 25.7C-28.2 23.2 -42.8 18.2 -44.9 10C-46.9 1.9 -36.4 -9.4 -26.8 -20.3C-17.2 -31.3 -8.6 -42.1 0.4 -42.4C9.5 -42.8 18.9 -32.7 29.5 -21.5Z" fill="none" stroke="#f92c85" stroke-width="2"></path></g><g transform="translate(190 492)"><path d="M19.2 -10.4C27.8 -4.5 39.7 3.6 38.9 9.6C38.1 15.5 24.5 19.2 14.8 19.6C5.1 19.9 -0.8 16.9 -7 14.1C-13.1 11.3 -19.5 8.6 -25.4 0.7C-31.3 -7.2 -36.7 -20.4 -32.4 -25.3C-28 -30.2 -14 -26.9 -4.4 -23.4C5.3 -19.9 10.6 -16.3 19.2 -10.4Z" fill="none" stroke="#f92c85" stroke-width="2"></path></g><g transform="translate(228 62)"><path d="M14.1 -13.1C16.6 -8.2 15.6 -2.4 15 4.6C14.3 11.7 14 20.1 8.8 25.4C3.5 30.6 -6.7 32.8 -14.7 29.4C-22.8 26 -28.8 17 -27.7 9.8C-26.6 2.6 -18.3 -2.7 -12.5 -8.4C-6.7 -14 -3.4 -20 1.2 -20.9C5.8 -21.9 11.7 -17.9 14.1 -13.1Z" fill="none" stroke="#f92c85" stroke-width="2"></path></g></g></svg>