<svg id="visual" viewBox="0 0 960 540" width="960" height="540" xmlns="http://www.w3.org/2000/svg" xmlns:xlink="http://www.w3.org/1999/xlink" version="1.1"><g><g transform="translate(158 60)"><path d="M22.7 -14.3C27 -5.7 26.4 4.6 21.8 12.7C17.1 20.9 8.6 26.9 -0.2 27.1C-9.1 27.2 -18.1 21.5 -26.4 11.2C-34.7 0.9 -42.2 -13.9 -37.7 -22.6C-33.2 -31.3 -16.6 -33.9 -3.7 -31.7C9.2 -29.6 18.5 -22.8 22.7 -14.3Z" fill="none" stroke="#f92c85" stroke-width="2"></path></g><g transform="translate(798 264)"><path d="M36.1 -24.1C41.5 -11.5 36.9 3.5 29.2 15.4C21.5 27.2 10.8 35.7 2.6 34.2C-5.6 32.8 -11.2 21.2 -15.7 11.3C-20.2 1.3 -23.6 -7.1 -20.7 -18.2C-17.9 -29.3 -9 -43 3.2 -44.9C15.4 -46.7 30.7 -36.7 36.1 -24.1Z" fill="none" stroke="#f92c85" stroke-width="2"></path></g><g transform="translate(258 222)"><path d="M29.2 -14.8C37.4 -2.6 43.4 12.9 38.1 25.4C32.9 37.8 16.4 47.1 5.4 44C-5.6 40.8 -11.3 25.3 -18.7 11.6C-26.2 -2.1 -35.5 -14 -32.7 -23.1C-29.9 -32.1 -14.9 -38.4 -2.2 -37.1C10.5 -35.9 21 -27 29.2 -14.8Z" fill="none" stroke="#f92c85" stroke-width="2"></path></g><g transform="translate(662 496)"><path d="M34.3 -22.5C40 -9.8 37.2 5 30.1 13.5C23 22 11.5 24.1 -2.5 25.6C-16.5 27.1 -33.1 27.8 -40.3 19.3C-47.6 10.7 -45.6 -7.3 -37.4 -21.4C-29.1 -35.5 -14.5 -45.8 -0.1 -45.7C14.3 -45.6 28.5 -35.2 34.3 -22.5Z" fill="none" stroke="#f92c85" stroke-width="2"></path></g></g></svg>